<?xml version="1.0" standalone="no"?>
<!DOCTYPE svg PUBLIC "-//W3C//DTD SVG 20010904//EN"
 "http://www.w3.org/TR/2001/REC-SVG-20010904/DTD/svg10.dtd">
<svg version="1.0" xmlns="http://www.w3.org/2000/svg"
 width="344.000000pt" height="344.000000pt" viewBox="0 0 344.000000 344.000000"
 preserveAspectRatio="xMidYMid meet">
<metadata>
Created by potrace 1.14, written by Peter Selinger 2001-2017
</metadata>
<g transform="translate(0.000000,344.000000) scale(0.100000,-0.100000)"
fill="#000000" stroke="none">
<path d="M1735 3149 c-284 -51 -488 -162 -636 -345 -132 -164 -197 -310 -251
-569 -17 -82 -22 -148 -25 -358 l-5 -258 -31 6 c-52 11 -130 50 -161 81 -34
35 -74 93 -106 157 -35 68 -59 87 -117 94 -62 7 -167 -23 -230 -64 -62 -42
-163 -142 -163 -161 1 -12 10 -6 33 20 83 93 216 168 312 175 71 5 104 -9 124
-52 29 -64 96 -158 141 -198 28 -25 73 -52 111 -66 35 -12 74 -27 86 -32 15
-5 26 -23 33 -51 7 -24 16 -53 21 -66 15 -39 11 -62 -11 -62 -37 0 -20 -15 56
-49 53 -25 88 -48 117 -82 47 -53 137 -212 155 -276 7 -24 18 -43 25 -43 7 0
42 -5 79 -10 61 -9 75 -7 142 15 41 14 96 25 123 26 l48 0 -33 17 c-32 16 -36
15 -95 -7 -96 -37 -144 -38 -193 -4 -51 35 -138 141 -170 209 -14 28 -43 70
-65 95 -69 76 -78 101 -148 399 -37 156 -41 189 -41 297 0 73 6 149 15 190 23
101 76 263 91 277 7 8 33 47 58 87 48 80 134 176 206 230 25 18 47 36 50 39
15 19 139 95 210 129 339 166 767 186 1105 51 114 -45 118 -45 43 -6 -132 70
-313 129 -496 161 -95 16 -324 19 -407 4z"/>
<path d="M1773 2810 c-13 -5 -63 -12 -113 -16 -50 -4 -93 -11 -96 -15 -3 -5
-20 -9 -39 -9 -19 0 -37 -4 -40 -10 -3 -5 -15 -10 -25 -10 -10 0 -23 -7 -28
-16 -8 -14 -21 -16 -81 -12 -67 5 -73 4 -82 -16 -6 -11 -28 -32 -50 -46 -34
-21 -39 -29 -39 -62 0 -34 -5 -42 -41 -66 -66 -44 -94 -73 -138 -146 -46 -77
-47 -81 -25 -103 13 -13 14 -29 9 -83 -9 -89 9 -123 112 -217 70 -63 87 -73
146 -88 62 -15 71 -15 114 -1 26 9 69 16 97 16 30 0 70 9 96 21 25 11 74 23
109 26 53 5 65 3 73 -10 7 -13 23 -17 62 -17 38 0 61 -6 77 -19 21 -17 22 -22
12 -56 -15 -48 -9 -59 65 -127 75 -68 108 -141 97 -218 -4 -27 -11 -52 -16
-56 -15 -9 -10 -57 9 -89 10 -16 37 -49 60 -73 25 -26 42 -53 42 -67 0 -13 5
-27 10 -30 6 -3 10 -16 10 -27 0 -12 19 -40 45 -65 25 -23 45 -45 45 -47 0 -3
11 -22 25 -42 38 -55 34 -70 -21 -78 -26 -3 -62 -6 -80 -6 -31 0 -76 -15 -99
-33 -77 -60 -123 -87 -150 -87 -17 0 -57 -13 -88 -30 -58 -30 -97 -38 -97 -21
0 5 7 22 15 37 37 71 -7 164 -78 164 -6 0 0 -8 13 -17 40 -28 49 -45 50 -95 0
-36 -4 -48 -15 -48 -8 0 -15 4 -15 10 0 21 -41 50 -70 50 -34 0 -120 -37 -120
-52 0 -5 9 -23 21 -39 11 -16 19 -35 16 -42 -7 -20 -76 -37 -189 -47 -57 -5
-119 -14 -138 -20 -69 -20 -139 -12 -260 31 -281 100 -314 110 -386 116 -47 4
-74 2 -74 -4 0 -6 31 -13 68 -16 62 -6 239 -57 317 -92 97 -43 165 -66 210
-71 68 -8 317 31 476 76 51 14 87 17 147 13 l79 -6 39 42 c32 33 46 41 76 41
27 0 49 10 87 40 85 68 113 77 243 85 105 6 119 5 124 -10 9 -22 -16 -69 -30
-55 -29 29 -130 1 -152 -41 -16 -32 -12 -44 23 -73 13 -10 23 -21 21 -25 -2
-4 -33 -36 -70 -70 -47 -43 -77 -64 -99 -66 -18 -3 -35 -9 -38 -14 -7 -10
-116 -46 -171 -56 -19 -4 -90 -20 -157 -36 -170 -40 -199 -39 -369 21 -173 61
-220 73 -399 104 -197 34 -366 86 -415 128 -19 16 -116 139 -152 193 -82 123
-158 228 -184 257 -16 18 -39 46 -52 62 -45 58 -107 126 -114 126 -4 0 -8 -20
-8 -45 0 -47 -4 -40 105 -163 16 -18 41 -53 55 -77 158 -276 275 -392 460
-457 68 -23 186 -52 305 -73 107 -20 303 -65 433 -101 126 -34 215 -30 433 21
166 39 167 39 240 24 41 -7 120 -14 176 -14 101 0 102 0 135 33 31 29 40 32
94 32 42 0 71 6 99 21 22 12 81 43 132 69 111 56 174 109 299 247 265 293 394
542 440 843 33 222 -16 467 -137 680 -40 71 -89 147 -89 138 0 -3 25 -57 55
-119 65 -135 93 -238 101 -374 14 -210 -47 -431 -168 -610 -19 -28 -40 -66
-48 -85 -49 -123 -208 -403 -297 -525 -21 -30 -21 -30 -42 -10 -12 10 -40 21
-63 24 -35 5 -42 10 -52 41 -14 45 -46 60 -127 60 -51 0 -77 -6 -111 -24 -44
-23 -44 -23 -43 -3 2 25 45 46 95 47 61 0 107 19 143 58 104 111 119 131 117
159 -3 47 -1 51 35 64 40 15 45 40 19 90 -14 27 -14 33 0 52 28 41 41 52 79
72 20 11 37 23 37 27 0 3 9 10 20 13 37 12 25 72 -32 164 -29 46 -35 91 -19
134 9 24 102 119 201 206 34 30 62 68 87 117 48 99 44 107 -48 83 -108 -28
-169 -25 -169 10 0 11 -25 30 -71 54 l-72 37 -21 -23 c-12 -13 -50 -39 -84
-57 -34 -18 -72 -42 -85 -54 -13 -12 -34 -26 -48 -33 -26 -11 -39 -45 -39
-103 0 -28 -19 -40 -67 -40 -23 0 -103 -39 -103 -51 0 -4 -18 -10 -41 -14 -37
-6 -40 -10 -36 -31 4 -21 -6 -32 -55 -70 -40 -30 -65 -43 -78 -39 -19 6 -50
71 -50 105 0 16 -36 38 -170 105 -155 78 -194 104 -176 122 3 3 55 -20 116
-51 l110 -57 87 1 c49 1 102 0 118 -1 17 -1 55 0 85 4 30 3 66 6 80 7 43 1 53
13 45 58 -7 42 -10 45 -105 86 -31 14 -164 111 -168 124 -2 6 3 12 12 12 9 0
16 -4 16 -9 0 -5 35 -26 78 -46 69 -33 83 -37 135 -32 32 3 60 7 62 9 2 2 -1
21 -7 44 -12 45 -6 85 18 108 20 21 30 20 54 -4 15 -15 20 -33 20 -75 0 -47
-3 -57 -25 -71 -13 -8 -29 -13 -35 -9 -5 3 -10 1 -10 -5 0 -19 28 -22 52 -6
15 11 33 14 54 10 17 -3 55 1 85 10 63 19 159 80 159 101 0 8 -16 26 -35 41
-21 16 -35 35 -35 49 0 12 -15 35 -35 54 -19 17 -35 36 -35 41 0 5 -15 25 -32
43 -18 19 -42 49 -52 67 -20 35 -22 35 29 14 11 -5 15 1 15 24 0 18 -6 32 -16
36 -26 10 -114 7 -136 -5 -14 -8 -42 -7 -101 1 -45 7 -110 15 -144 17 -61 5
-62 5 -69 -22 -4 -15 -15 -43 -24 -63 -13 -26 -15 -41 -8 -49 17 -21 30 -15
80 34 56 55 63 45 13 -18 l-35 -44 21 -17 c12 -10 28 -18 36 -18 12 0 73 42
111 78 7 6 16 12 19 12 8 0 -16 -28 -64 -74 -42 -40 -43 -41 -25 -64 l18 -23
54 25 c79 37 95 32 21 -6 -52 -28 -61 -36 -57 -54 5 -20 1 -22 -62 -27 -104
-8 -210 -47 -382 -138 -24 -13 -68 -48 -96 -78 -28 -29 -57 -51 -63 -47 -6 4
-25 0 -42 -9 -38 -20 -109 -46 -109 -40 0 3 21 16 48 29 74 37 92 57 81 85 -8
21 -13 23 -57 16 -118 -16 -125 -15 -39 11 82 25 87 28 87 54 0 26 -3 28 -58
34 -107 12 -125 26 -24 20 l92 -6 0 30 c0 29 -4 32 -95 68 -52 20 -94 39 -92
40 1 2 40 -8 87 -22 104 -30 127 -30 135 -3 4 11 5 22 3 23 -1 2 -32 24 -68
50 -79 57 -64 60 26 5 67 -41 67 -41 87 -21 20 20 20 20 -30 79 -81 95 -81
102 -2 25 74 -72 76 -72 93 -53 17 19 17 23 -18 102 -19 46 -34 84 -32 86 4 4
86 -137 86 -148 0 -11 21 -11 39 0 9 6 12 21 8 52 -3 24 -6 49 -6 55 -1 6 -22
19 -48 29 -59 22 -57 19 -43 42 8 13 9 26 1 46 -11 29 -15 30 -48 17z m463
-626 c35 -53 11 -164 -36 -164 -35 0 -60 39 -60 92 0 88 58 131 96 72z m144
-324 c0 -5 -4 -10 -10 -10 -5 0 -10 5 -10 10 0 6 5 10 10 10 6 0 10 -4 10 -10z
m467 -232 c-3 -8 -6 -5 -6 6 -1 11 2 17 5 13 3 -3 4 -12 1 -19z m13 -148 c0
-11 -4 -20 -9 -20 -11 0 -22 26 -14 34 12 12 23 5 23 -14z m-483 -22 c-3 -7
-5 -2 -5 12 0 14 2 19 5 13 2 -7 2 -19 0 -25z m68 22 c3 -5 1 -10 -4 -10 -6 0
-11 5 -11 10 0 6 2 10 4 10 3 0 8 -4 11 -10z m-212 -7 c-7 -2 -19 -2 -25 0 -7
3 -2 5 12 5 14 0 19 -2 13 -5z m394 1 c-3 -3 -12 -4 -19 -1 -8 3 -5 6 6 6 11
1 17 -2 13 -5z m-10 -386 c-3 -8 -6 -5 -6 6 -1 11 2 17 5 13 3 -3 4 -12 1 -19z
m-240 -10 c-3 -8 -6 -5 -6 6 -1 11 2 17 5 13 3 -3 4 -12 1 -19z m269 -172 c18
-18 18 -85 0 -108 -12 -17 -16 -17 -44 -2 -42 20 -67 11 -97 -37 -31 -48 -33
-79 -5 -79 11 0 20 -7 20 -15 0 -8 -6 -15 -14 -15 -8 0 -21 -6 -28 -13 -22
-21 -101 -77 -109 -77 -5 0 -33 -15 -63 -33 -54 -33 -57 -33 -128 -25 -50 6
-79 15 -92 28 -19 19 -19 19 9 30 34 13 279 256 289 286 3 11 25 32 48 47 37
24 52 27 121 27 55 0 83 -4 93 -14z m-312 -75 c6 -9 -68 -91 -82 -91 -15 0
-52 32 -52 45 0 24 51 55 91 55 21 0 40 -4 43 -9z m-649 -32 c17 -32 15 -41
-10 -45 -8 -1 -32 -5 -53 -9 -37 -6 -40 -4 -52 25 -17 42 0 56 72 59 21 1 31
-6 43 -30z m1061 -7 c6 -4 14 -24 18 -44 l7 -38 -46 0 c-49 0 -54 -3 -98 -62
-16 -21 -47 -46 -74 -58 -48 -21 -113 -27 -113 -10 0 12 88 70 162 107 69 34
90 57 82 88 -5 22 -3 25 22 25 16 0 34 -4 40 -8z m-147 -16 c13 -16 -1 -56
-19 -56 -6 0 -10 -6 -10 -13 0 -15 -56 -22 -65 -7 -3 6 4 28 16 50 24 43 56
53 78 26z m71 -10 c0 -14 -5 -28 -11 -31 -15 -10 -18 -4 -12 28 7 34 23 36 23
3z m48 -77 c-2 -6 -8 -10 -13 -10 -5 0 -11 4 -13 10 -2 6 4 11 13 11 9 0 15
-5 13 -11z"/>
<path d="M1925 2668 c22 -75 30 -88 51 -88 16 0 25 9 33 31 9 27 8 33 -16 55
-14 13 -37 24 -50 24 -21 0 -23 -4 -18 -22z"/>
<path d="M2040 2615 c0 -31 3 -35 25 -35 32 0 58 46 34 61 -8 5 -24 9 -36 9
-20 0 -23 -5 -23 -35z"/>
<path d="M3020 1510 c-17 -22 -43 -45 -58 -53 -23 -11 -27 -18 -25 -52 2 -22
-3 -57 -9 -77 -15 -52 8 -88 57 -88 41 0 46 9 70 123 9 40 21 88 26 108 8 26
8 42 0 58 -16 29 -25 27 -61 -19z"/>
<path d="M775 315 c-4 -36 -4 -102 0 -148 l6 -82 1207 2 c664 0 1215 1 1225 2
15 1 17 15 17 146 l0 145 -1224 0 -1224 0 -7 -65z m206 -55 c7 -50 8 -50 15
-1 5 44 16 51 86 51 69 0 78 -11 78 -94 0 -72 -14 -86 -90 -86 -51 0 -60 3
-66 22 l-6 21 -17 -22 c-15 -19 -25 -22 -75 -19 -66 3 -90 23 -69 56 7 12 8
24 2 33 -14 23 -10 58 9 77 14 14 28 17 72 12 l55 -5 6 -45z m249 30 c0 -14 3
-41 6 -62 6 -32 10 -37 41 -40 l34 -4 -5 63 -5 63 74 0 75 0 0 -31 c0 -21 -4
-28 -12 -23 -10 6 -10 4 0 -7 6 -7 12 -37 12 -66 l0 -53 -130 0 c-71 0 -133 0
-137 0 -8 0 -17 156 -10 174 3 6 16 11 31 11 21 0 26 -5 26 -25z m1080 -52 l0
-78 45 0 c32 0 45 -4 45 -14 0 -18 -109 -27 -118 -9 -4 6 -6 49 -4 96 3 64 7
84 18 84 11 0 14 -17 14 -79z m131 53 c1 -9 2 -39 3 -68 1 -58 9 -72 34 -57
13 8 18 28 20 78 l3 67 88 -2 c49 -1 93 1 99 5 7 4 12 -24 14 -81 4 -97 1
-116 -16 -110 -6 2 -13 36 -16 78 -4 66 -7 74 -25 74 -18 0 -20 -8 -23 -72 -3
-65 -5 -73 -22 -73 -18 0 -20 7 -20 69 0 60 -2 69 -20 74 -18 5 -20 0 -20 -53
0 -52 -3 -61 -27 -80 -19 -15 -35 -19 -53 -15 -40 10 -50 32 -50 117 0 65 2
76 15 72 8 -4 16 -14 16 -23z m561 -163 c-6 -6 -18 2 -31 19 -12 15 -31 39
-42 53 l-20 25 4 -42 c4 -29 1 -46 -9 -54 -8 -7 -16 -10 -18 -8 -2 2 -6 44 -7
94 -3 78 -1 90 14 93 11 2 26 -12 44 -42 16 -25 31 -46 36 -46 4 0 7 20 7 44
0 27 5 46 13 49 15 5 23 -171 9 -185z m-1387 150 c11 -25 14 -28 15 -12 0 37
19 44 120 44 91 0 98 -1 108 -22 l11 -23 7 23 c5 18 14 22 45 22 l38 0 -23
-51 c-13 -27 -27 -53 -30 -56 -3 -4 -6 -21 -6 -39 0 -28 -4 -32 -30 -36 -27
-4 -30 -2 -30 21 0 14 -11 49 -25 76 l-24 50 -1 -47 c0 -26 -5 -59 -12 -73
-10 -23 -17 -25 -68 -25 -65 0 -75 7 -90 66 -9 38 -10 38 -5 -13 l4 -53 -34 0
c-31 0 -35 3 -35 25 0 14 -5 25 -11 25 -7 0 -9 -10 -7 -25 5 -22 2 -25 -23
-25 -16 0 -32 1 -36 3 -4 1 -7 41 -8 90 l0 87 68 0 c67 0 68 0 82 -32z m490
19 c24 -18 3 -32 -42 -28 -25 2 -33 -2 -33 -13 0 -9 7 -17 15 -17 8 -1 21 -2
28 -3 27 -2 41 -27 38 -73 -2 -37 -93 -52 -120 -19 -19 23 2 37 37 24 23 -9
35 -9 43 -1 17 17 4 30 -36 37 -50 10 -64 52 -32 94 13 16 78 15 102 -1z m139
-9 c22 -30 21 -116 -1 -140 -20 -22 -70 -23 -95 -1 -26 23 -26 137 0 152 31
19 80 13 96 -11z m607 -16 c13 -26 15 -42 7 -75 -12 -54 -29 -70 -70 -69 -43
1 -58 24 -58 91 0 69 19 93 69 89 29 -2 39 -9 52 -36z m299 23 c18 -22 6 -30
-40 -26 -52 3 -56 -24 -5 -33 21 -4 41 -17 51 -31 15 -23 15 -27 1 -49 -27
-41 -119 -40 -125 2 -3 23 21 32 33 12 9 -15 41 -12 54 4 10 12 5 16 -26 26
-21 7 -42 16 -47 21 -17 16 -17 52 0 71 21 22 86 24 104 3z m20 -175 c0 -5 -5
-10 -11 -10 -5 0 -7 5 -4 10 3 6 8 10 11 10 2 0 4 -4 4 -10z"/>
<path d="M1060 219 c0 -24 4 -30 18 -27 24 5 25 58 0 58 -13 0 -18 -8 -18 -31z"/>
<path d="M900 190 c0 -5 5 -10 10 -10 6 0 10 5 10 10 0 6 -4 10 -10 10 -5 0
-10 -4 -10 -10z"/>
<path d="M1380 190 c0 -5 14 -10 30 -10 17 0 30 5 30 10 0 6 -13 10 -30 10
-16 0 -30 -4 -30 -10z"/>
<path d="M1530 245 c0 -8 5 -15 10 -15 6 0 10 7 10 15 0 8 -4 15 -10 15 -5 0
-10 -7 -10 -15z"/>
<path d="M1695 252 c-12 -9 -16 -52 -4 -52 5 0 9 9 9 20 0 11 7 20 16 20 8 0
12 5 9 10 -7 12 -16 12 -30 2z"/>
<path d="M1698 183 c7 -3 16 -2 19 1 4 3 -2 6 -13 5 -11 0 -14 -3 -6 -6z"/>
<path d="M2164 256 c-10 -26 1 -79 19 -90 24 -15 37 6 37 62 0 38 -2 42 -25
42 -14 0 -28 -6 -31 -14z"/>
<path d="M2771 267 c-22 -22 -4 -107 23 -107 15 0 26 30 26 76 0 34 -28 52
-49 31z"/>
</g>
</svg>
